<?xml version="1.0"?>
<svg xmlns="http://www.w3.org/2000/svg" xmlns:xlink="http://www.w3.org/1999/xlink" version="1.1" id="Layer_1" x="0px" y="0px" viewBox="0 0 512.219 512.219" style="enable-background:new 0 0 512.219 512.219;" xml:space="preserve" width="512px" height="512px"><g transform="matrix(0.499837 0 0 0.499837 128.096 40.6249)"><g>
	<path d="M512.219,0.125L375.08,30.12l-62.354,62.954h-84.853l-57.427,56.827l42.427,42.426l-27.427,27.827h-84.853L0.106,320.75   l76.951,32.747l80.697,80.697l32.741,77.794l100.418-101.342V325.82l28.027-27.427l42.426,42.426l57.627-57.427v-84.852l62.1-62.3   L512.219,0.125z M458.856,98.899l-46.273-46.273l59.848-13.09L458.856,98.899z M446.218,128.688l-21.213,21.213l-63.64-63.64   l21.213-21.213L446.218,128.688z M212.873,149.901l27.427-27.027h42.426l-48.64,48.24L212.873,149.901z M113.021,249.754h42.426   L82.13,323.07l-29.82-12.607L113.021,249.754z M261.313,398.273l-60.488,61.063l-12.651-30.177l73.139-73.339V398.273z    M170.447,404.459l-21.213-21.213l63.64-63.639l-21.213-21.213l-63.64,63.64l-21.213-21.213l233.346-233.345l63.64,63.64   L170.447,404.459z M389.192,270.967l-27.827,27.427l-21.213-21.213l49.04-48.64V270.967z" data-original="#000000" class="active-path" fill="#000000"/>
	<rect x="27.426" y="424.667" transform="matrix(-0.7071 -0.7071 0.7071 -0.7071 -259.6829 831.7686)" width="30" height="90" data-original="#000000" class="active-path" fill="#000000"/>
	<rect x="1.82" y="380.421" transform="matrix(0.7071 -0.7071 0.7071 0.7071 -270.2866 138.3177)" width="60" height="30" data-original="#000000" class="active-path" fill="#000000"/>
	<rect x="101.673" y="450.274" transform="matrix(-0.7071 -0.7071 0.7071 -0.7071 -140.437 902.3755)" width="30" height="60" data-original="#000000" class="active-path" fill="#000000"/>
	<rect x="299.546" y="166.721" transform="matrix(0.7071 -0.7071 0.7071 0.7071 -31.9739 286.2497)" width="60" height="30" data-original="#000000" class="active-path" fill="#000000"/>
</g></g> </svg>
