<svg id="Layer_1" data-name="Layer 1" xmlns="http://www.w3.org/2000/svg" xmlns:xlink="http://www.w3.org/1999/xlink" viewBox="0 0 195.69 172.4"><defs><style>.cls-1{fill:url(#Dégradé_sans_nom_266);}.cls-2{fill:#0b2f63;}.cls-3{fill:url(#Dégradé_sans_nom_28);}.cls-4{fill:url(#Dégradé_sans_nom_28-2);}.cls-5{fill:url(#Dégradé_sans_nom_182);}.cls-6{fill:url(#Dégradé_sans_nom_28-3);}.cls-7{fill:#fff;}</style><linearGradient id="Dégradé_sans_nom_266" x1="91.32" y1="57.96" x2="93.21" y2="59.96" gradientUnits="userSpaceOnUse"><stop offset="0.41" stop-color="#de5125"/><stop offset="0.66" stop-color="#f37d44"/><stop offset="0.99" stop-color="#de5125"/></linearGradient><linearGradient id="Dégradé_sans_nom_28" x1="109.19" y1="36.96" x2="112.8" y2="40.65" gradientTransform="translate(-0.26 0.82)" gradientUnits="userSpaceOnUse"><stop offset="0.42" stop-color="#0b2f63"/><stop offset="0.5" stop-color="#103268"/><stop offset="0.6" stop-color="#1d3d76"/><stop offset="0.71" stop-color="#324d8d"/><stop offset="0.72" stop-color="#365091"/><stop offset="0.8" stop-color="#26437f"/><stop offset="0.91" stop-color="#12346b"/><stop offset="0.98" stop-color="#0b2f63"/></linearGradient><linearGradient id="Dégradé_sans_nom_28-2" x1="99.43" y1="43.79" x2="105.21" y2="49.93" xlink:href="#Dégradé_sans_nom_28"/><linearGradient id="Dégradé_sans_nom_182" x1="104.24" y1="44.58" x2="105.76" y2="46.29" gradientTransform="translate(1.05 -2.11) rotate(1.62)" gradientUnits="userSpaceOnUse"><stop offset="0.41" stop-color="#1a3e7b"/><stop offset="0.6" stop-color="#395caa"/><stop offset="0.81" stop-color="#385ba8"/><stop offset="0.89" stop-color="#3356a1"/><stop offset="0.94" stop-color="#2b4f96"/><stop offset="0.98" stop-color="#204485"/><stop offset="1" stop-color="#1a3e7b"/></linearGradient><linearGradient id="Dégradé_sans_nom_28-3" x1="106.15" y1="38.57" x2="110.87" y2="43.42" xlink:href="#Dégradé_sans_nom_28"/></defs><title>logo</title><path class="cls-1" d="M87.33,62.63A11.58,11.58,0,0,1,90.09,57c.37-.45.8-.87,1.19-1.31.14-.17,1-.79.79-1s-1.1.45-1.32.59a8.46,8.46,0,0,0-2.15,2.19,7.92,7.92,0,0,1,2.69-3.87A3.93,3.93,0,0,1,95,53.15a2.77,2.77,0,0,1,1.42,3.17,4.56,4.56,0,0,1-1.59,2.36,12.94,12.94,0,0,1-4.37,2.42c.52-.52,1.2-.76,1.44-1.52a6.64,6.64,0,0,0-4.53,3.05" transform="translate(83.41 70.78)"/><path class="cls-2" d="M94.35,50l-.08,0c-1.65-.74-4.3.87-3.92.22a16.92,16.92,0,0,1,2.13-2.73,23.64,23.64,0,0,1,5.24-2.77l.09,0,.06,0,.07,0,.07,0,.08,0-.07.07A26.37,26.37,0,0,0,94.35,50Z" transform="translate(83.41 70.78)"/><path class="cls-2" d="M99.74,55.33l0,.09c.71,1.66-.94,4.28-.28,3.92a18.61,18.61,0,0,0,2.77-2.09,24.37,24.37,0,0,0,2.84-5.19.3.3,0,0,0,0-.1l0-.06,0-.06a.24.24,0,0,0,0-.08l0-.07-.08.07A26.13,26.13,0,0,1,99.74,55.33Z" transform="translate(83.41 70.78)"/><path class="cls-3" d="M112.28,38.13a16.47,16.47,0,0,1-1.07,5L107.12,39a18.83,18.83,0,0,1,5.1-.94Z" transform="translate(83.41 70.78)"/><path class="cls-4" d="M107.54,42.77c.77.79,1.55,1.59,2.33,2.37a.32.32,0,0,1,0,.49,22.68,22.68,0,0,1-4.37,4.76,29,29,0,0,1-6.6,4c-.32.14-.51.06-.77-.2-1-1-2-2-3-2.95a.6.6,0,0,1-.06-.54,26.15,26.15,0,0,1,5.16-7.28,21.72,21.72,0,0,1,4.19-3.18c.28-.16.48-.06.69.15C106,41.21,107.53,42.78,107.54,42.77Zm-4.44,1.76A1.67,1.67,0,0,0,103,47a1.8,1.8,0,0,0,2.48,0,1.66,1.66,0,0,0,0-2.42A1.77,1.77,0,0,0,103.1,44.53Z" transform="translate(83.41 70.78)"/><ellipse class="cls-5" cx="104.29" cy="45.75" rx="1.04" ry="1.02" transform="translate(82.16 73.74) rotate(-1.62)"/><path class="cls-6" d="M110.1,44.28l-4.17-4.23a.39.39,0,0,1,0-.55h0a.4.4,0,0,1,.56,0l4.17,4.23a.39.39,0,0,1,0,.55h0A.4.4,0,0,1,110.1,44.28Z" transform="translate(83.41 70.78)"/><polygon class="cls-2" points="26.35 0 3.92 0 0 0 0 3.75 0 25.23 3.92 25.23 3.92 3.75 26.35 3.75 26.35 0"/><polygon class="cls-2" points="146.41 172.4 168.84 172.4 172.76 172.4 172.76 168.65 172.76 147.17 168.84 147.17 168.84 168.65 146.41 168.65 146.41 172.4"/><path class="cls-7" d="M6,23A8.38,8.38,0,0,1,8,19c.28-.33.58-.63.86-.95.11-.12.73-.57.57-.72s-.79.33-.95.42a6.12,6.12,0,0,0-1.54,1.58,5.66,5.66,0,0,1,1.93-2.79,2.86,2.86,0,0,1,2.65-.32,2,2,0,0,1,1,2.28,3.25,3.25,0,0,1-1.15,1.71,9.23,9.23,0,0,1-3.15,1.74c.38-.37.87-.55,1-1.1A4.8,4.8,0,0,0,6,23" transform="translate(83.41 70.78)"/><path class="cls-7" d="M11.07,13.93l-.06,0c-1.19-.54-3.1.62-2.83.15a13,13,0,0,1,1.54-2,17.54,17.54,0,0,1,3.77-2l.07,0,0,0,.05,0h.06l0,0,0,.06A18.64,18.64,0,0,0,11.07,13.93Z" transform="translate(83.41 70.78)"/><path class="cls-7" d="M15,17.77l0,.07c.51,1.19-.68,3.08-.2,2.82a13,13,0,0,0,2-1.5,17.16,17.16,0,0,0,2.05-3.74l0-.07,0,0v-.05l0-.05,0,0-.06,0A18.47,18.47,0,0,1,15,17.77Z" transform="translate(83.41 70.78)"/><path class="cls-7" d="M24,5.38A11.58,11.58,0,0,1,23.21,9L20.27,6A13.7,13.7,0,0,1,24,5.33Z" transform="translate(83.41 70.78)"/><path class="cls-7" d="M20.57,8.72l1.68,1.71a.23.23,0,0,1,0,.35,16,16,0,0,1-3.15,3.43,20.88,20.88,0,0,1-4.76,2.91c-.23.1-.36,0-.55-.15-.7-.71-1.43-1.41-2.13-2.13a.41.41,0,0,1,0-.39A17.7,17.7,0,0,1,14,10.7c.44-.51.87-1,1.35-1.49a15.4,15.4,0,0,1,3-2.29.37.37,0,0,1,.5.1C19.43,7.6,20.56,8.73,20.57,8.72ZM17.37,10a1.2,1.2,0,0,0,0,1.75,1.29,1.29,0,0,0,1.78,0,1.2,1.2,0,0,0,0-1.75A1.28,1.28,0,0,0,17.37,10Z" transform="translate(83.41 70.78)"/><ellipse class="cls-7" cx="18.23" cy="10.87" rx="0.75" ry="0.73" transform="translate(83.11 71.29) rotate(-1.62)"/><path class="cls-7" d="M22.41,9.81l-3-3.05a.27.27,0,0,1,0-.39h0a.28.28,0,0,1,.4,0l3,3.05a.28.28,0,0,1,0,.39h0A.31.31,0,0,1,22.41,9.81Z" transform="translate(83.41 70.78)"/><polygon class="cls-7" points="87.81 70.78 84.25 70.78 83.62 70.78 83.62 71.37 83.62 74.79 84.25 74.79 84.25 71.37 87.81 71.37 87.81 70.78"/><polygon class="cls-7" points="106.91 98.19 110.47 98.19 111.09 98.19 111.09 97.59 111.09 94.18 110.47 94.18 110.47 97.59 106.91 97.59 106.91 98.19"/></svg>