<?xml version="1.0"?>
<svg xmlns="http://www.w3.org/2000/svg" height="512px" viewBox="0 -100 512.00067 512" width="512px" class=""><g transform="matrix(0.628817 0 0 0.628817 132.479 -71.8218)"><path d="m504.5 198.328125h-284c-4.140625 0-7.5 3.355469-7.5 7.5 0 4.140625 3.359375 7.5 7.5 7.5h144.550781v28.875l-12.347656 13.167969c-1.300781 1.390625-2.027344 3.222656-2.027344 5.128906v43.667969c0 4.140625 3.359375 7.5 7.5 7.5h63c4.144531 0 7.5-3.359375 7.5-7.5v-8.5c0-4.144531-3.355469-7.5-7.5-7.5-4.140625 0-7.5 3.355469-7.5 7.5v1h-48v-33.203125l12.347657-13.167969c1.304687-1.390625 2.027343-3.222656 2.027343-5.128906v-31.839844h19.25v31.839844c0 1.90625.726563 3.738281 2.027344 5.128906l12.347656 13.167969v2.203125c0 4.140625 3.359375 7.5 7.5 7.5 4.144531 0 7.5-3.359375 7.5-7.5-.285156-3.523438.949219-7.121094-2.027343-10.296875l-12.347657-13.167969v-28.875h90.199219c4.144531 0 7.5-3.359375 7.5-7.5 0-4.144531-3.355469-7.5-7.5-7.5zm0 0" data-original="#000000" class="active-path" data-old_color="#000000" fill="#BA16BF"/><path d="m190.5 198.328125h-183c-4.140625 0-7.5 3.355469-7.5 7.5 0 4.140625 3.359375 7.5 7.5 7.5h90.199219v28.875l-12.347657 13.167969c-1.300781 1.390625-2.027343 3.222656-2.027343 5.128906v43.667969c0 4.140625 3.359375 7.5 7.5 7.5h63c4.144531 0 7.5-3.359375 7.5-7.5v-8.5c0-4.144531-3.355469-7.5-7.5-7.5-4.140625 0-7.5 3.355469-7.5 7.5v1h-48v-33.203125l12.347656-13.167969c1.304687-1.390625 2.027344-3.222656 2.027344-5.128906v-31.839844h19.25v31.839844c0 1.90625.726562 3.738281 2.027343 5.128906l12.347657 13.167969v2.203125c0 4.140625 3.359375 7.5 7.5 7.5 4.144531 0 7.5-3.359375 7.5-7.5-.285157-3.523438.949219-7.121094-2.027344-10.296875l-12.347656-13.167969v-28.875h43.550781c4.144531 0 7.5-3.359375 7.5-7.5 0-4.144531-3.355469-7.5-7.5-7.5zm0 0" data-original="#000000" class="active-path" data-old_color="#000000" fill="#BA16BF"/><path d="m504.5 168.667969h-5.925781v-42.507813c1.769531.210938 3.546875.386719 5.324219.527344.203124.019531.40625.027344.609374.027344 3.867188 0 7.152344-2.972656 7.46875-6.898438.332032-4.128906-2.746093-7.746094-6.875-8.078125-4.144531-.332031-8.242187-.859375-12.28125-1.566406-.277343-.066406-.558593-.117187-.84375-.152344-16.292968-2.960937-31.652343-8.921875-45.429687-17.488281-.554687-.476562-1.175781-.871094-1.847656-1.167969-14.558594-9.398437-27.28125-21.746093-37.375-36.578125v-43.285156c0-6.339844-5.160157-11.5-11.5-11.5h-12.296875c-6.339844 0-11.5 5.160156-11.5 11.5v30.699219c-49.507813 93.796875-183.160156 92.632812-232.054688 0v-30.699219c0-6.339844-5.160156-11.5-11.5-11.5h-12.296875c-6.339843 0-11.5 5.160156-11.5 11.5v43.285156c-10.09375 14.832032-22.816406 27.179688-37.375 36.578125-.675781.296875-1.296875.691407-1.847656 1.167969-13.777344 8.566406-29.136719 14.527344-45.425781 17.488281-.289063.035157-.570313.085938-.84375.152344-4.042969.707031-8.140625 1.234375-12.285156 1.566406-4.128907.332031-7.207032 3.949219-6.8750005 8.078125.3164065 3.925782 3.6015625 6.898438 7.4687505 6.898438.203124 0 .40625-.007813.609374-.027344 1.777344-.140625 3.554688-.316406 5.324219-.527344v42.507813h-5.925781c-4.140625 0-7.5 3.355469-7.5 7.5 0 4.140625 3.359375 7.5 7.5 7.5h497c4.144531 0 7.5-3.359375 7.5-7.5 0-4.144531-3.355469-7.5-7.5-7.5zm-20.925781 0h-34.417969v-57.546875c10.882812 5.566406 22.480469 9.761718 34.417969 12.460937zm-49.417969-66.40625v66.40625h-26.832031v-89.703125c7.96875 8.804687 17.003906 16.660156 26.832031 23.296875zm-62.128906-32.308594v98.714844h-34.40625v-66.292969c13.039062-8.777344 24.679687-19.6875 34.40625-32.421875zm-49.40625 98.714844h-34.421875v-45.046875c12.039062-2.695313 23.59375-6.878906 34.421875-12.410156zm-49.421875-42.503907v42.503907h-34.398438v-42.503907c11.128907 1.300782 22.726563 1.363282 34.398438 0zm-49.398438 42.503907h-34.421875v-57.457031c10.832032 5.53125 22.382813 9.71875 34.421875 12.410156zm-49.421875-66.292969v66.292969h-34.40625v-98.714844c9.726563 12.734375 21.367188 23.644531 34.40625 32.421875zm-69.703125-23.410156v89.703125h-26.828125v-66.40625c9.824219-6.636719 18.859375-14.492188 26.828125-23.296875zm-76.25 44.617187c11.9375-2.699219 23.539063-6.894531 34.421875-12.460937v57.546875h-34.421875zm91.25 45.085938v-111.34375c.007813-.175781.007813-.351563 0-.523438v-41.800781h5.296875v28.785156c-.003906.160156-.003906.324219 0 .484375v124.398438zm267.351563 0v-124.394531c.007812-.164063.007812-.324219 0-.488282v-28.785156h5.296875v41.800781c-.003907.175781-.003907.347657 0 .527344v111.339844zm0 0" data-original="#000000" class="active-path" data-old_color="#000000" fill="#BA16BF"/></g> </svg>
